<?xml version="1.0" standalone="no"?>
<!DOCTYPE svg PUBLIC "-//W3C//DTD SVG 20010904//EN"
 "http://www.w3.org/TR/2001/REC-SVG-20010904/DTD/svg10.dtd">
<svg version="1.0" xmlns="http://www.w3.org/2000/svg"
 width="500.000000pt" height="500.000000pt" viewBox="0 0 500.000000 500.000000"
 preserveAspectRatio="xMidYMid meet">
<metadata>
Created by potrace 1.14, written by Peter Selinger 2001-2017
</metadata>
<g transform="translate(0.000000,500.000000) scale(0.100000,-0.100000)"
fill="#000000" stroke="none">
<path d="M0 2500 l0 -2500 2500 0 2500 0 0 2500 0 2500 -2500 0 -2500 0 0
-2500z m1735 1609 c110 -13 229 -42 310 -76 126 -52 278 -173 402 -318 l52
-59 22 29 c50 65 168 180 244 238 193 146 406 206 690 194 151 -6 280 -35 400
-91 376 -174 596 -621 520 -1058 -41 -236 -190 -531 -390 -773 -225 -273 -705
-741 -1004 -981 -170 -136 -456 -334 -484 -334 -47 0 -335 203 -587 413 -296
247 -791 751 -962 978 -163 218 -280 458 -322 663 -21 98 -21 330 -1 425 47
222 194 458 359 575 201 143 478 208 751 175z"/>
<path d="M3123 3312 c-12 -11 -52 -155 -117 -417 -54 -220 -101 -403 -105
-407 -3 -4 -44 74 -91 174 -47 100 -93 192 -103 205 -22 28 -67 31 -89 6 -9
-10 -67 -214 -129 -453 -61 -239 -115 -438 -119 -443 -3 -4 -105 256 -225 578
-120 321 -226 591 -235 600 -22 20 -63 19 -83 -2 -8 -10 -62 -169 -120 -353
l-105 -335 -155 -3 c-149 -2 -157 -2 -167 18 -19 35 -70 60 -123 60 -40 0 -53
-5 -83 -33 -29 -26 -37 -42 -41 -81 -8 -66 16 -109 74 -137 53 -25 98 -20 142
16 29 25 31 25 223 25 140 0 199 4 211 13 11 7 50 117 103 287 47 151 87 276
89 278 1 1 103 -266 226 -594 123 -328 230 -603 237 -611 17 -17 53 -17 76 0
13 9 51 140 135 463 65 247 120 456 123 464 4 10 13 -1 26 -30 11 -25 54 -116
96 -203 85 -177 104 -197 153 -160 25 18 35 53 124 407 53 213 99 389 102 392
2 2 26 -56 52 -130 26 -74 53 -140 60 -146 9 -8 107 -11 304 -10 284 0 290 0
301 -20 17 -32 71 -60 115 -60 138 0 186 181 66 248 -63 35 -117 25 -170 -32
l-24 -26 -248 0 c-187 0 -250 3 -256 13 -4 6 -40 104 -80 216 -40 112 -80 212
-89 222 -22 24 -59 24 -81 1z"/>
</g>
</svg>
