<?xml version="1.0" standalone="no"?>
<!DOCTYPE svg PUBLIC "-//W3C//DTD SVG 20010904//EN"
 "http://www.w3.org/TR/2001/REC-SVG-20010904/DTD/svg10.dtd">
<svg version="1.0" xmlns="http://www.w3.org/2000/svg"
 width="500.000000pt" height="500.000000pt" viewBox="0 0 500.000000 500.000000"
 preserveAspectRatio="xMidYMid meet">
<metadata>
Created by potrace 1.14, written by Peter Selinger 2001-2017
</metadata>
<g transform="translate(0.000000,500.000000) scale(0.100000,-0.100000)"
fill="#000000" stroke="none">
<path d="M2801 4996 c6 -6 86 -61 369 -252 135 -91 335 -226 445 -301 110 -74
274 -186 365 -247 91 -61 167 -113 170 -116 3 -3 88 -61 190 -129 324 -217
555 -374 570 -386 8 -6 32 -22 53 -34 l37 -23 0 746 0 746 -1102 0 c-606 0
-1099 -2 -1097 -4z"/>
<path d="M1685 2500 c0 -699 3 -1270 7 -1270 4 0 45 22 90 48 106 62 472 274
518 300 50 28 521 300 670 387 69 40 215 124 325 188 110 63 256 147 325 187
69 40 158 91 197 114 40 22 73 43 73 46 0 4 -59 39 -354 209 -22 13 -84 48
-136 78 -52 31 -115 67 -140 81 -25 13 -70 39 -100 58 -30 18 -318 184 -640
370 -322 185 -638 368 -703 405 -65 38 -121 69 -125 69 -4 0 -7 -571 -7 -1270z"/>
<path d="M4930 1456 c-25 -18 -110 -77 -190 -131 -80 -54 -192 -131 -250 -170
-58 -39 -188 -128 -290 -197 -102 -69 -248 -169 -325 -221 -77 -53 -210 -143
-295 -201 -85 -57 -207 -140 -270 -183 -63 -43 -200 -136 -305 -207 -104 -71
-194 -133 -199 -137 -6 -5 467 -9 1091 -9 l1100 0 0 745 c0 535 -3 745 -11
744 -6 0 -31 -15 -56 -33z"/>
</g>
</svg>
