<?xml version="1.0" standalone="no"?>
<!DOCTYPE svg PUBLIC "-//W3C//DTD SVG 20010904//EN"
 "http://www.w3.org/TR/2001/REC-SVG-20010904/DTD/svg10.dtd">
<svg version="1.0" xmlns="http://www.w3.org/2000/svg"
 width="500.000000pt" height="500.000000pt" viewBox="0 0 500.000000 500.000000"
 preserveAspectRatio="xMidYMid meet">
<metadata>
Created by potrace 1.14, written by Peter Selinger 2001-2017
</metadata>
<g transform="translate(0.000000,500.000000) scale(0.100000,-0.100000)"
fill="#000000" stroke="none">
<path d="M2806 4992 c9 -8 2109 -1430 2167 -1467 l27 -17 0 746 0 746 -1102 0
c-606 0 -1098 -4 -1092 -8z"/>
<path d="M1680 2500 c0 -1060 2 -1271 13 -1268 19 4 2197 1262 2197 1268 0 6
-2178 1264 -2197 1268 -11 3 -13 -208 -13 -1268z"/>
<path d="M3897 752 l-1098 -747 1097 -3 c603 -1 1099 -1 1101 1 2 2 2 339 1
750 l-3 745 -1098 -746z"/>
</g>
</svg>
